<?xml version="1.0" encoding="utf-8"?>
<!-- Generator: Adobe Illustrator 16.0.0, SVG Export Plug-In . SVG Version: 6.00 Build 0)  -->
<!DOCTYPE svg PUBLIC "-//W3C//DTD SVG 1.1//EN" "http://www.w3.org/Graphics/SVG/1.1/DTD/svg11.dtd">
<svg version="1.1" id="briefcase" xmlns="http://www.w3.org/2000/svg" xmlns:xlink="http://www.w3.org/1999/xlink" x="0px" y="0px"
	 width="112px" height="91px" viewBox="0 0 112 91" enable-background="new 0 0 112 91" xml:space="preserve">
<path id="body_1_" fill-rule="evenodd" clip-rule="evenodd" fill="#242424" d="M104.035,91H8.128c-4.418,0-8-3.582-8-8V28.844
	c0-4.418,3.582-8,8-8H32.16V8.906c0-4.418,3.582-8,8-8h31.938c4.418,0,8,3.582,8,8v11.938h23.938c4.418,0,8,3.582,8,8V83
	C112.035,87.418,108.453,91,104.035,91z M76.098,8.906c0-2.209-1.791-4-4-4H40.16c-2.209,0-4,1.791-4,4v11.938h4V8.906h31.969
	v11.938h3.969V8.906z M44.128,12.906v7.938h24v-7.938H44.128z M108.035,28.844c0-2.209-1.791-4-4-4H8.128
	c-2.209,0-4,1.791-4.097,4.174v54.156C4.128,85.209,5.919,87,8.128,87h95.907c2.209,0,4-1.791,4-4V28.844z"/>
<path id="white_1_" fill-rule="evenodd" clip-rule="evenodd" fill="#FFFFFF" d="M8.129,24.646h95.906c2.209,0,4,1.791,4,4v54.156
	c0,2.209-1.791,4-4,4H8.129c-2.209,0-4-1.791-4-4V28.646C4.129,26.438,5.92,24.646,8.129,24.646z"/>
<path id="red" fill-rule="evenodd" clip-rule="evenodd" fill="#ED6A56" d="M76.125,8.875c0-2.209-1.792-4-4.003-4H40.163
	c-2.21,0-4.003,1.791-4.003,4v12.063h4.003V8.984L72.047,9v11.938h4.078V8.875z"/>
<g id="dots">
	<g>
		<path fill-rule="evenodd" clip-rule="evenodd" fill="#E9E9E9" d="M4.032,52.725v2H6v-2H4.032z M6,54.725v2H4.046v2h2v-2H8v-2H6z
			 M8.032,52.725v2.031H10v-2.031H8.032z M10,54.756v1.969H8v2.031h2v-2h2v-2H10z M12,58.756h2v-2h-2V58.756z M12.032,52.756v2H14
			v-2H12.032z M14,54.756v2h2v-2H14z M16,58.756h2v-2h-2V58.756z M16.032,52.756v2H18v-2H16.032z M18,54.756v2h2v-2H18z M20,58.756
			h2v-2h-2V58.756z M20.032,52.756v2H22v-2H20.032z M22,54.756v2h2v-2H22z M24,58.756h2v-2h-2V58.756z M24.032,52.756v2H26v-2
			H24.032z M26,54.756v2h2v-2H26z M28.032,52.756v2H30v-2H28.032z M30,54.756v2h-2v2h2v-1.969h2v-2.031H30z M32,58.787h2v-2h-2
			V58.787z M32.032,52.787v2H34v-2H32.032z M34,54.787v2h2v-2H34z M36,58.787h2v-2h-2V58.787z M36.032,52.787v2H38v-2H36.032z
			 M38,54.787v2h2v-2H38z M40,58.787h2v-2h-2V58.787z M40.032,54.787H42v-2h-1.969V54.787z M70,54.818v2h2v-2H70z M72.031,52.818
			v2.031H74v-2.031H72.031z M74,54.85v1.969h-2v2.031h2v-2h2v-2H74z M76,58.85h2v-2h-2V58.85z M76.031,52.85v2H78v-2H76.031z
			 M78,54.85v2h2v-2H78z M80,58.85h2v-2h-2V58.85z M80.031,52.85v2H82v-2H80.031z M82,54.85v2h2v-2H82z M84,58.85h2v-2h-2V58.85z
			 M84.031,52.85v2H86v-2H84.031z M86,54.85v2h2v-2H86z M88,58.85h2v-2h-2V58.85z M88.031,52.85v2H90v-2H88.031z M90,54.85v2h2v-2
			H90z M92.031,52.85v2H94v-2H92.031z M94,54.85v2h-2v2h2v-1.969h2V54.85H94z M96,58.881h2v-2h-2V58.881z M96.031,52.881v2H98v-2
			H96.031z M98,54.881v2h2v-2H98z M100,58.881h2v-2h-2V58.881z M100.031,52.881v2H102v-2H100.031z M102,54.881v2h2v-2H102z
			 M104,58.881h2v-2h-2V58.881z M104.031,52.881v2H106v-2H104.031z M106,54.881v2h2v-2H106z"/>
	</g>
</g>
<g id="lines">
	<g>
		<path fill-rule="evenodd" clip-rule="evenodd" fill="#D9D9D9" d="M4.046,82.109h8v-2.031h-8V82.109z M8.046,76.078h-4v2h4V76.078z
			 M100.14,28.234v2h8v-2H100.14z M104.108,34.234h4v-2h-4V34.234z"/>
	</g>
</g>
<g id="animate">
	<path fill-rule="evenodd" clip-rule="evenodd" fill="#242424" d="M110.438,52.798l-40.375,0.03v2.053c0,2.209-1.791,4-4,4H46.094
		c-2.209,0-4-1.791-4-4v-2.094L1.188,52.795v-4l40.907,0.016V46.85c0-2.209,1.791-4,4-4h19.968c2.209,0,4,1.791,4,4v1.961h40.375
		V52.798z M66.063,46.85H46.094v8.031h19.968V46.85z"/>
	<path id="yellow" fill-rule="evenodd" clip-rule="evenodd" fill="#F7D54A" d="M46.097,46.792h19.969v8.146H46.097V46.792z"/>
</g>
</svg>
