<?xml version="1.0" encoding="utf-8"?>
<!-- Generator: Adobe Illustrator 16.0.0, SVG Export Plug-In . SVG Version: 6.00 Build 0)  -->
<!DOCTYPE svg PUBLIC "-//W3C//DTD SVG 1.1//EN" "http://www.w3.org/Graphics/SVG/1.1/DTD/svg11.dtd">
<svg version="1.1" id="chain" xmlns="http://www.w3.org/2000/svg" xmlns:xlink="http://www.w3.org/1999/xlink" x="0px" y="0px"
	 width="109px" height="91px" viewBox="0 0 109 91" enable-background="new 0 0 109 91" xml:space="preserve">
<g>
	<path fill="#E5E5E5" d="M59.547,56.656h2v2h-2V56.656z"/>
	<path fill="#E5E5E5" d="M61.547,54.656h2v2h-2V54.656z"/>
	<path fill="#E5E5E5" d="M57.547,54.656h2v2h-2V54.656z"/>
	<path fill="#E5E5E5" d="M59.547,52.656h2v2h-2V52.656z"/>
	<path fill="#E5E5E5" d="M61.578,50.656h1.969v2h-1.969V50.656z"/>
	<path fill="#E5E5E5" d="M57.578,50.656h1.969v2h-1.969V50.656z"/>
	<path fill="#E5E5E5" d="M59.578,48.656h2v2h-2V48.656z"/>
	<path fill="#E5E5E5" d="M61.578,46.656h2v2h-2V46.656z"/>
	<path fill="#E5E5E5" d="M57.578,46.656h2v2h-2V46.656z"/>
	<path fill="#E5E5E5" d="M59.578,44.656h2v2h-2V44.656z"/>
	<path fill="#E5E5E5" d="M61.578,42.656h2v2h-2V42.656z"/>
	<path fill="#E5E5E5" d="M57.578,42.656h2v2h-2V42.656z"/>
	<path fill="#E5E5E5" d="M59.578,40.656h2v2h-2V40.656z"/>
	<path fill="#E5E5E5" d="M61.578,38.656h2v2h-2V38.656z"/>
	<path fill="#E5E5E5" d="M57.578,38.656h2v2h-2V38.656z"/>
	<path fill="#E5E5E5" d="M59.578,36.656h2v2h-2V36.656z"/>
	<path fill="#E5E5E5" d="M61.578,34.656h2v2h-2V34.656z"/>
	<path fill="#E5E5E5" d="M57.578,34.656h2v2h-2V34.656z"/>
	<path fill="#E5E5E5" d="M63.547,52.656h2v2h-2V52.656z"/>
	<path fill="#E5E5E5" d="M63.578,48.656h2v2h-2V48.656z"/>
	<path fill="#E5E5E5" d="M63.578,44.656h2v2h-2V44.656z"/>
	<path fill="#E5E5E5" d="M63.578,40.656h2v2h-2V40.656z"/>
	<path fill="#E5E5E5" d="M63.578,36.656h2v2h-2V36.656z"/>
</g>
<path fill-rule="evenodd" clip-rule="evenodd" fill="#FFFFFF" d="M99.367,55.98L99.367,55.98c0.004,0.004,0.008,0.008,0.012,0.012
	c6.987,7.043,6.962,18.414-0.066,25.424c-3.52,3.508-8.128,5.26-12.733,5.252c-4.595-0.014-9.185-1.775-12.686-5.283
	c-0.004-0.004-0.008-0.008-0.013-0.014l-0.009,0.01L58.916,66.395l-0.975-0.977c1.141-0.688,2.229-1.488,3.255-2.402l0.159,0.16
	L76.63,78.494c0.024,0.029,0.049,0.057,0.075,0.084c5.468,5.479,14.346,5.492,19.828,0.029c5.484-5.463,5.497-14.334,0.029-19.813
	c-0.068-0.068-0.143-0.125-0.212-0.191l-17.92-17.958l-5.696-5.713c-0.049-0.055-0.096-0.111-0.148-0.164
	c-0.182-0.183-0.378-0.344-0.567-0.515c-0.107-0.097-0.212-0.197-0.321-0.29c-0.166-0.141-0.336-0.272-0.507-0.403
	c-0.181-0.14-0.363-0.275-0.549-0.404c-0.143-0.099-0.284-0.198-0.43-0.291c-0.295-0.19-0.595-0.368-0.9-0.534
	c-0.047-0.025-0.091-0.054-0.138-0.079c-0.385-0.203-0.778-0.383-1.176-0.548c-0.048-0.02-0.096-0.036-0.144-0.055
	c-0.368-0.148-0.74-0.278-1.117-0.393c-0.041-0.013-0.081-0.025-0.122-0.037c-3.081-0.908-6.411-0.743-9.398,0.511l0.016,0.016
	c-1.249,0.523-2.437,1.233-3.521,2.134l-0.013-0.013c-0.324,0.27-0.643,0.549-0.946,0.853c-2.879,2.87-4.232,6.681-4.09,10.446
	c0.123,3.384,1.451,6.732,4.016,9.33c-1.131,0.871-2.403,1.465-3.731,1.785c-6.014-7.074-5.685-17.685,1.007-24.352
	c7.034-7.007,18.418-6.995,25.437,0.025l0.01-0.01l5.47,5.481L99.35,55.959C99.355,55.967,99.361,55.973,99.367,55.98z M35.363,9.86
	c0.004,0.004,0.008,0.009,0.012,0.013l0.01-0.01l15.922,15.963c-1.136,0.685-2.22,1.482-3.243,2.39L32.584,12.691
	c-0.349-0.35-0.712-0.675-1.086-0.98C26,7.208,17.874,7.513,12.733,12.637c-5.481,5.464-5.494,14.334-0.029,19.813
	c0.068,0.068,0.143,0.126,0.212,0.192l23.563,23.624c0.066,0.068,0.123,0.143,0.191,0.211c0.513,0.514,1.063,0.965,1.631,1.383
	c0.039,0.027,0.077,0.057,0.116,0.084c0.252,0.184,0.506,0.357,0.767,0.52c0.089,0.057,0.18,0.107,0.269,0.16
	c0.335,0.199,0.675,0.385,1.021,0.553c0.229,0.111,0.458,0.223,0.69,0.322c0.145,0.061,0.291,0.113,0.437,0.168
	c0.262,0.102,0.525,0.193,0.792,0.277c0.115,0.037,0.229,0.072,0.345,0.105c3.059,0.883,6.357,0.707,9.318-0.535l-0.023-0.023
	c1.248-0.523,2.434-1.236,3.517-2.139l0.025,0.025c0.323-0.27,0.642-0.549,0.945-0.852c5.469-5.453,5.487-14.3,0.05-19.777
	c1.131-0.871,2.402-1.463,3.729-1.784c6.01,7.073,5.681,17.684-1.008,24.35c-7.03,7.008-18.409,6.996-25.424-0.023l-0.005,0.004
	L9.924,35.285C2.904,28.246,2.921,16.849,9.96,9.83c3.519-3.508,8.124-5.258,12.729-5.253C27.279,4.592,31.865,6.353,35.363,9.86z"
	/>
<g>
	<path fill="#242424" d="M56.469,36.709c5.465,5.479,5.452,14.35-0.027,19.813c-5.481,5.463-14.354,5.451-19.819-0.027
		c-0.068-0.068-0.125-0.145-0.191-0.213L12.867,32.658c-0.069-0.066-0.144-0.124-0.212-0.192
		c-5.465-5.479-5.452-14.349,0.029-19.813c5.48-5.463,14.354-5.45,19.819,0.029c0.067,0.068,0.125,0.143,0.191,0.212l16.69,16.734
		c-1.003,0.883-1.925,1.856-2.734,2.921L29.67,15.526l-0.009,0.009c-0.002-0.003-0.004-0.005-0.007-0.008
		c-3.895-3.905-10.219-3.914-14.125-0.021c-3.906,3.893-3.915,10.215-0.021,14.12c0.002,0.003,0.005,0.004,0.008,0.007l-0.01,0.009
		l23.966,24.026l0.009-0.009c3.896,3.897,10.214,3.905,14.117,0.014c3.904-3.891,3.916-10.207,0.027-14.112l0.009-0.009L52.4,38.313
		c0.713-1.145,1.604-2.163,2.649-3.007l1.208,1.211C56.326,36.584,56.4,36.641,56.469,36.709z M52.688,27.275L35.336,9.879
		l-0.01,0.01c-0.004-0.004-0.008-0.009-0.012-0.013C28.3,2.843,16.911,2.827,9.877,9.839C2.842,16.851,2.825,28.235,9.84,35.268
		c0.004,0.004,0.009,0.008,0.013,0.012l-0.01,0.01l23.966,24.026l0.01-0.01c7.015,7.021,18.394,7.031,25.424,0.024
		c7.03-7.009,7.051-18.382,0.049-25.416l0.011-0.01l-0.605-0.607c1.226-0.419,2.535-0.658,3.902-0.656
		c0.334,0,0.662,0.024,0.987,0.051c7.091,8.649,6.589,21.432-1.497,29.491c-8.604,8.576-22.534,8.557-31.113-0.045L7.011,38.112
		l0.011-0.011c-3.973-3.985-6.425-9.484-6.416-15.556C0.623,10.4,10.487,0.568,22.638,0.586C28.83,0.595,34.412,3.17,38.404,7.292
		l18.215,18.262C55.236,25.986,53.924,26.569,52.688,27.275z"/>
	<path fill="#242424" d="M52.681,54.568c-5.468-5.479-5.455-14.35,0.028-19.813c5.482-5.463,14.361-5.45,19.828,0.029
		c0.068,0.068,0.125,0.143,0.191,0.212l23.572,23.623c0.069,0.066,0.145,0.123,0.213,0.191c5.467,5.479,5.455,14.35-0.029,19.813
		c-5.482,5.463-14.36,5.449-19.828-0.027c-0.067-0.068-0.125-0.145-0.191-0.213L59.768,61.648c1.002-0.883,1.926-1.855,2.734-2.922
		L79.49,75.751l0.01-0.009c0.002,0.002,0.004,0.005,0.006,0.008c3.896,3.904,10.225,3.914,14.133,0.02
		c3.907-3.893,3.916-10.215,0.021-14.119c-0.002-0.002-0.005-0.004-0.009-0.008l0.011-0.008L69.684,37.607l-0.009,0.009
		c-3.897-3.897-10.219-3.904-14.124-0.014c-3.906,3.892-3.917,10.208-0.027,14.113l-0.008,0.01l1.235,1.237
		c-0.714,1.146-1.604,2.164-2.65,3.009l-1.209-1.212C52.823,54.693,52.748,54.637,52.681,54.568z M56.463,64.002l17.359,17.396
		l0.01-0.01c0.005,0.004,0.009,0.008,0.014,0.014c7.018,7.031,18.41,7.049,25.448,0.037s7.056-18.396,0.037-25.43
		c-0.004-0.005-0.009-0.008-0.015-0.013l0.011-0.011L75.352,31.961l-0.01,0.01c-7.02-7.02-18.402-7.032-25.437-0.025
		c-7.033,7.007-7.054,18.382-0.049,25.416l-0.01,0.011l0.606,0.606c-1.227,0.42-2.536,0.658-3.904,0.656
		c-0.334-0.001-0.662-0.023-0.989-0.052c-7.093-8.649-6.591-21.431,1.499-29.49c8.607-8.576,22.543-8.556,31.125,0.045
		l23.978,24.026l-0.011,0.012c3.975,3.984,6.428,9.484,6.418,15.555c-0.018,12.146-9.885,21.979-22.041,21.961
		c-6.195-0.008-11.78-2.584-15.774-6.707L52.529,65.723C53.913,65.291,55.227,64.708,56.463,64.002z"/>
</g>
<g id="red">
	<path fill-rule="evenodd" clip-rule="evenodd" fill="#ED6A56" d="M61.172,63.021l11.917,11.943l-2.833,2.824L57.917,65.423
		C59.058,64.735,60.146,63.935,61.172,63.021z"/>
	<path fill-rule="evenodd" clip-rule="evenodd" fill="#ED6A56" d="M92.918,55.192L80.103,42.35l2.833-2.825L95.75,52.368
		L92.918,55.192z"/>
</g>
<g id="green">
	<path fill-rule="evenodd" clip-rule="evenodd" fill="#85AB70" d="M16.194,35.989l12.812,12.843l-2.832,2.824L13.362,38.812
		L16.194,35.989z"/>
	<path fill-rule="evenodd" clip-rule="evenodd" fill="#85AB70" d="M47.918,28.152l-11.9-11.931l2.832-2.824l12.323,12.355
		C50.033,26.44,48.945,27.24,47.918,28.152z"/>
</g>
</svg>
