<?xml version="1.0" encoding="utf-8"?>
<!-- Generator: Adobe Illustrator 16.0.0, SVG Export Plug-In . SVG Version: 6.00 Build 0)  -->
<!DOCTYPE svg PUBLIC "-//W3C//DTD SVG 1.1//EN" "http://www.w3.org/Graphics/SVG/1.1/DTD/svg11.dtd">
<svg version="1.1" id="clock" xmlns="http://www.w3.org/2000/svg" xmlns:xlink="http://www.w3.org/1999/xlink" x="0px" y="0px"
	 width="103px" height="103px" viewBox="0 0 103 103" enable-background="new 0 0 103 103" xml:space="preserve">
<path id="white" fill-rule="evenodd" clip-rule="evenodd" fill="#FFFFFF" d="M51.5,0.438c28.123,0,50.922,22.861,50.922,51.063
	S79.623,102.563,51.5,102.563S0.578,79.701,0.578,51.5S23.377,0.438,51.5,0.438z"/>
<path id="body" fill-rule="evenodd" clip-rule="evenodd" fill="#242424" d="M51.5,102.563c-28.123,0-50.922-22.861-50.922-51.063
	S23.377,0.438,51.5,0.438s50.922,22.861,50.922,51.063S79.623,102.563,51.5,102.563z M51.516,4.438
	c-25.923,0-46.938,21.07-46.938,47.063s21.015,47.063,46.938,47.063S98.453,77.492,98.453,51.5S77.438,4.438,51.516,4.438z"/>
<path id="yellow" fill-rule="evenodd" clip-rule="evenodd" fill="#F7D54A" d="M51.5,42.5c4.971,0,9,4.029,9,9c0,4.971-4.029,9-9,9
	s-9-4.029-9-9C42.5,46.529,46.529,42.5,51.5,42.5z"/>
<g id="greenDots">
	<g>
		<path fill-rule="evenodd" clip-rule="evenodd" fill="#85AB70" d="M51.35,16.5c-1.104,0-2,0.896-2,2s0.896,2,2,2s2-0.896,2-2
			S52.454,16.5,51.35,16.5z M51.256,82.5c-1.104,0-2,0.896-2,2s0.896,2,2,2s2-0.896,2-2S52.36,82.5,51.256,82.5z M18.318,49.438
			c-1.104,0-2,0.896-2,2s0.896,2,2,2s2-0.896,2-2S19.423,49.438,18.318,49.438z M73.269,26.78c-0.782,0.78-0.784,2.046-0.004,2.828
			c0.779,0.782,2.046,0.784,2.828,0.004s0.784-2.046,0.004-2.829C75.317,26.002,74.051,26,73.269,26.78z M26.532,73.381
			c-0.782,0.78-0.784,2.047-0.005,2.829c0.78,0.782,2.047,0.784,2.829,0.004s0.784-2.046,0.004-2.829
			C28.58,72.604,27.314,72.602,26.532,73.381z M73.201,73.449c-0.782,0.779-0.784,2.046-0.005,2.828
			c0.78,0.782,2.047,0.784,2.829,0.004c0.782-0.779,0.783-2.046,0.004-2.828C75.249,72.671,73.983,72.669,73.201,73.449z
			 M26.6,26.712c-0.782,0.78-0.784,2.046-0.004,2.829c0.779,0.782,2.046,0.784,2.828,0.004s0.784-2.046,0.004-2.828
			C28.648,25.935,27.382,25.933,26.6,26.712z M86.097,49.784c-0.779-0.782-2.046-0.784-2.828-0.004s-0.784,2.046-0.004,2.828
			c0.779,0.782,2.046,0.784,2.828,0.005C86.875,51.833,86.877,50.566,86.097,49.784z"/>
	</g>
</g>
<path id="dot" fill-rule="evenodd" clip-rule="evenodd" fill="#242424" d="M51.5,45.5c3.313,0,6,2.687,6,6s-2.687,6-6,6
	s-6-2.687-6-6S48.187,45.5,51.5,45.5z"/>
<path id="grayCirle" fill-rule="evenodd" clip-rule="evenodd" fill="#DDDDDD" d="M51.5,94.563
	c-23.714,0-42.938-19.279-42.938-43.063c0-23.783,19.224-43.063,42.938-43.063S94.438,27.717,94.438,51.5
	C94.438,75.283,75.214,94.563,51.5,94.563z M51.5,10.437c-22.609,0-40.938,18.385-40.938,41.063
	c0,22.678,18.328,41.063,40.938,41.063S92.438,74.178,92.438,51.5C92.438,28.822,74.109,10.437,51.5,10.437z"/>
<path id="lineMin" fill-rule="evenodd" clip-rule="evenodd" fill="#242424" d="M51.435,49.477l32,0.046
	c1.104,0.001,1.998,0.898,1.997,2.003c-0.002,1.104-0.898,1.999-2.003,1.997l-32-0.047c-1.104-0.001-1.999-0.898-1.997-2.002
	C49.433,50.37,50.33,49.476,51.435,49.477z"/>
<path id="lineHr" fill-rule="evenodd" clip-rule="evenodd" fill="#242424" d="M50.134,52.983L32.997,36.946
	c-0.807-0.755-0.849-2.021-0.094-2.827c0.755-0.807,2.021-0.849,2.827-0.094l17.137,16.037c0.808,0.755,0.849,2.021,0.094,2.828
	C52.207,53.696,50.94,53.738,50.134,52.983z"/>
<path id="red" fill-rule="evenodd" clip-rule="evenodd" fill="#EE6A56" d="M54.01,46.095c-0.596-0.281-1.244-0.46-1.929-0.531
	l1.965-7.292c0.145-0.533,0.693-0.849,1.227-0.705s0.849,0.692,0.705,1.226L54.01,46.095z M49.005,56.978
	c0.601,0.27,1.256,0.424,1.941,0.484L46.87,72.587c-0.145,0.533-0.693,0.848-1.227,0.705c-0.533-0.145-0.849-0.693-0.705-1.227
	L49.005,56.978z M53.336,52.198c-0.067,0.182-0.157,0.352-0.271,0.504c-0.008,0.01-0.017,0.02-0.025,0.031
	c-0.253,0.322-0.601,0.566-1.004,0.688c-0.184,0.055-0.373,0.094-0.574,0.094c-0.533-0.002-1.015-0.215-1.373-0.555l0,0
	c-0.19-0.182-0.346-0.4-0.454-0.645c-0.001-0.002-0.002-0.002-0.002-0.004c-0.108-0.243-0.169-0.514-0.168-0.799
	c0-0.216,0.043-0.42,0.107-0.614c0.009-0.029,0.017-0.06,0.027-0.088c0.07-0.185,0.167-0.356,0.286-0.51
	c0.017-0.021,0.034-0.041,0.051-0.061c0.271-0.323,0.64-0.563,1.065-0.665l0,0c0.149-0.036,0.305-0.06,0.466-0.06
	c0.573,0.001,1.086,0.246,1.45,0.633l0,0c0.168,0.179,0.305,0.388,0.399,0.619c0.001,0.002,0.001,0.005,0.002,0.007
	c0.093,0.229,0.146,0.48,0.146,0.744c0,0.206-0.04,0.4-0.099,0.584C53.355,52.134,53.347,52.167,53.336,52.198z"/>
</svg>
