<?xml version="1.0" encoding="utf-8"?>
<!-- Generator: Adobe Illustrator 16.0.0, SVG Export Plug-In . SVG Version: 6.00 Build 0)  -->
<!DOCTYPE svg PUBLIC "-//W3C//DTD SVG 1.1//EN" "http://www.w3.org/Graphics/SVG/1.1/DTD/svg11.dtd">
<svg version="1.1" id="Слой_1" xmlns="http://www.w3.org/2000/svg" xmlns:xlink="http://www.w3.org/1999/xlink" x="0px" y="0px"
	 width="40px" height="40px" viewBox="0 0 40 40" enable-background="new 0 0 40 40" xml:space="preserve">
<path fill="#242424" d="M38.483,13.284L21.001,4.542c-0.294-0.147-0.625-0.229-0.976-0.229s-0.682,0.082-0.977,0.229L1.566,13.284
	c-0.717,0.358-1.209,1.1-1.209,1.956c0,0.856,0.492,1.598,1.209,1.956l0.976,0.489v7.692c-0.651,0.379-1.092,1.076-1.092,1.883
	c0,1.206,0.979,2.186,2.185,2.186c1.207,0,2.186-0.979,2.186-2.186c0-0.807-0.442-1.504-1.093-1.883v-6.601l3.278,1.639v6.844
	c0,4.224,5.381,7.648,12.019,7.648s12.019-3.425,12.019-7.648v-6.844l6.439-3.219c0.717-0.358,1.209-1.1,1.209-1.956
	C39.692,14.384,39.2,13.642,38.483,13.284z M28.766,27.259c0,2.021-3.817,4.371-8.741,4.371s-8.741-2.35-8.741-4.371v-5.206
	l7.765,3.884c0.295,0.147,0.625,0.229,0.977,0.229s0.682-0.082,0.976-0.229l7.765-3.884V27.259z M20.025,22.76L4.984,15.239
	l15.041-7.521l15.041,7.521L20.025,22.76z"/>
</svg>
