<?xml version="1.0" encoding="utf-8"?>
<!-- Generator: Adobe Illustrator 16.0.0, SVG Export Plug-In . SVG Version: 6.00 Build 0)  -->
<!DOCTYPE svg PUBLIC "-//W3C//DTD SVG 1.1//EN" "http://www.w3.org/Graphics/SVG/1.1/DTD/svg11.dtd">
<svg version="1.1" id="headphones" xmlns="http://www.w3.org/2000/svg" xmlns:xlink="http://www.w3.org/1999/xlink" x="0px" y="0px"
	 width="102px" height="102px" viewBox="0 0 102 102" enable-background="new 0 0 102 102" xml:space="preserve">
<polygon id="white_x5F_bg" fill-rule="evenodd" clip-rule="evenodd" fill="#FFFFFF" points="1.75,76.193 6.979,76.193 10.75,64 
	10.75,48.5 10.75,39.516 23.75,20.5 35.975,12.667 51.584,10.167 64.417,12.25 76.917,19.417 85.167,28.833 91.167,41.5 
	91.917,59.167 91.917,66.067 95.167,77 100.167,77 100.167,52.667 99,41.75 92.75,25.25 83.167,13.667 76.25,8.5 57.417,2 
	36.333,3.917 23,10.583 8.25,26.833 2.75,43.833 "/>
<polygon id="yellow" fill-rule="evenodd" clip-rule="evenodd" fill="#F7D54A" points="24.917,9.833 30.583,15.625 51,9.667 
	71.292,15.625 77.625,9.458 59.334,2.542 37.792,3.333 "/>
<path id="body" fill-rule="evenodd" clip-rule="evenodd" fill="#242424" d="M102.016,51.137l-0.037,25.82
	c0.002,0.041,0.012,0.08,0.012,0.121c0,1.113-0.896,2.016-2,2.016c-0.052,0-0.101-0.012-0.151-0.016l-4.864-0.007l0.006-4l3,0.005
	l0.035-24h0.006c0-0.047,0.011-0.092,0.014-0.138h-0.078c-0.021-16.037-8.047-30.187-20.28-38.668l-2.907,2.898
	c11.58,7.691,19.22,20.838,19.243,35.77h-0.004c0.003,0.042,0.013,0.082,0.013,0.125c0,0.02-0.006,0.038-0.006,0.057L93.994,66.07
	l-4-0.006l0.021-15h0.006c0,0,0,0,0-0.001c0-0.043,0.01-0.083,0.013-0.125h-0.021c-0.037-21.48-17.443-38.898-38.94-38.93
	c-21.521-0.031-38.994,17.375-39.055,38.888c0,0.014,0.004,0.027,0.004,0.042c0,0.02-0.005,0.038-0.006,0.057l-0.021,14.957
	l-4-0.006l0.021-15h0.007c0-0.003-0.001-0.005-0.001-0.008H8.016c0.024-14.984,7.714-28.159,19.35-35.838l-2.896-2.904
	C12.177,20.668,4.106,34.854,4.085,50.938H4.021c0,0.02-0.005,0.038-0.006,0.057L3.981,74.939l3,0.004l-0.006,4l-4.972-0.007
	c-0.004,0-0.008,0.001-0.013,0.001s-0.009-0.001-0.014-0.001H1.975v-0.001c-1.097-0.008-1.985-0.898-1.985-1.998
	c0-0.001,0-0.003,0-0.004h-0.013l0.038-26h0.006c0-0.181,0.032-0.354,0.078-0.521C0.424,22.482,23.084-0.063,51.006-0.063
	c27.935,0,50.604,22.565,50.907,50.514c0.064,0.198,0.108,0.407,0.108,0.627C102.021,51.098,102.016,51.117,102.016,51.137z
	 M51.021,3.938c-8.389,0-16.256,2.217-23.071,6.083l2.965,2.974c6.018-3.189,12.878-4.997,20.163-4.986
	c7.285,0.01,14.141,1.838,20.148,5.045l2.977-2.968C67.363,6.18,59.456,3.938,51.021,3.938z"/>
<g id="left">
	<g id="white_x5F_bg_1_">
		<path fill-rule="evenodd" clip-rule="evenodd" fill="#FFFFFF" d="M24.064,93.118c-8.477-0.976-15.057-8.196-15.043-16.96
			c0.012-8.746,6.588-15.935,15.043-16.908V93.118z"/>
	</g>
	<path id="body_x5F_left" fill-rule="evenodd" clip-rule="evenodd" fill="#242424" d="M30.022,101.193
		c-2.619,0-4.817-1.702-5.614-4.051C13.591,96.306,5.069,87.257,5.069,76.193s8.522-20.112,19.339-20.949
		c0.797-2.349,2.995-4.051,5.614-4.051c3.288,0,5.953,2.666,5.953,5.953V95.24C35.975,98.528,33.31,101.193,30.022,101.193z
		 M24.069,59.316C15.614,60.287,9.038,67.452,9.025,76.17c-0.013,8.734,6.567,15.932,15.043,16.904V59.316z M32.006,57.162
		c0-1.087-0.881-1.969-1.969-1.969s-1.969,0.882-1.969,1.969v38.063c0,1.087,0.881,1.969,1.969,1.969s1.969-0.882,1.969-1.969
		V57.162z"/>
	<path id="red_1_" fill-rule="evenodd" clip-rule="evenodd" fill="#EE6A56" d="M29.97,55.193c1.088,0,1.969,0.882,2.036,1.969
		v38.063c-0.067,1.088-0.948,1.969-2.036,1.969s-1.969-0.881-1.969-1.969V57.162C28.001,56.075,28.882,55.193,29.97,55.193z"/>
	<g id="red_x5F_dark_1_">
		<path fill-rule="evenodd" clip-rule="evenodd" fill="#D86555" d="M28.023,61.751l0.004-2l4,0.006l-0.004,2L28.023,61.751z"/>
		<path fill-rule="evenodd" clip-rule="evenodd" fill="#D86555" d="M28.016,67.751l0.002-2l4,0.006l-0.002,2L28.016,67.751z"/>
		<path fill-rule="evenodd" clip-rule="evenodd" fill="#D86555" d="M28.006,73.751l0.004-2l4,0.006l-0.004,2L28.006,73.751z"/>
		<path fill-rule="evenodd" clip-rule="evenodd" fill="#D86555" d="M27.998,79.751l0.002-2l4,0.006l-0.002,2L27.998,79.751z"/>
		<path fill-rule="evenodd" clip-rule="evenodd" fill="#D86555" d="M27.989,85.751l0.003-2l4,0.006l-0.004,2L27.989,85.751z"/>
		<path fill-rule="evenodd" clip-rule="evenodd" fill="#D86555" d="M27.98,91.751l0.002-2l4,0.006l-0.002,2L27.98,91.751z"/>
	</g>
	<g id="grays_1_">
		<path fill-rule="evenodd" clip-rule="evenodd" fill="#E5E5E5" d="M16.06,62.462c0.638-0.464,1.302-0.893,2.002-1.265l-0.003,1.987
			l-2-0.003L16.06,62.462z M20.059,63.188l-0.003,2l-2-0.003l0.003-2L20.059,63.188z M20.05,69.188l-2-0.003l0.003-2l2,0.003
			L20.05,69.188z M20.044,73.188l-2-0.003l0.003-2l2,0.003L20.044,73.188z M20.039,77.188l-2-0.003l0.003-2l2,0.003L20.039,77.188z
			 M20.033,81.188l-2-0.003l0.003-2l2,0.003L20.033,81.188z M20.027,85.188l-2-0.003l0.003-2l2,0.003L20.027,85.188z M20.021,89.188
			l-2-0.003l0.003-2l2,0.003L20.021,89.188z M20.027,85.188l2,0.003l-0.003,2l-2-0.003L20.027,85.188z M20.033,81.188l2,0.003
			l-0.003,2l-2-0.003L20.033,81.188z M20.039,77.188l2,0.003l-0.003,2l-2-0.003L20.039,77.188z M20.044,73.188l2,0.003l-0.003,2
			l-2-0.003L20.044,73.188z M20.05,69.188l2,0.003l-0.003,2l-2-0.003L20.05,69.188z M20.056,65.188l2,0.003l-0.003,2l-2-0.003
			L20.056,65.188z M20.062,61.188l2,0.003l-0.003,2l-2-0.003L20.062,61.188z M20.063,60.306l-0.001,0.882l-1.979-0.003
			C18.718,60.848,19.382,60.562,20.063,60.306z M24.064,59.321l-0.002,1.872l-2-0.003l0.002-1.5
			C22.718,59.533,23.382,59.4,24.064,59.321z M24.059,63.193l-0.003,2l-2-0.003l0.003-2L24.059,63.193z M24.053,67.193l-0.003,2
			l-2-0.003l0.003-2L24.053,67.193z M24.047,71.193l-0.003,2l-2-0.003l0.003-2L24.047,71.193z M24.042,75.193l-0.003,2l-2-0.003
			l0.003-2L24.042,75.193z M24.036,79.193l-0.003,2l-2-0.003l0.003-2L24.036,79.193z M24.03,83.193l-0.003,2l-2-0.003l0.003-2
			L24.03,83.193z M24.024,87.193l-0.003,2l-2-0.003l0.003-2L24.024,87.193z M22.018,91.19l-2-0.003l0.003-2l2,0.003L22.018,91.19z
			 M24.015,93.065c-0.682-0.081-1.345-0.216-1.999-0.375l0.002-1.5l2,0.003L24.015,93.065z M18.039,91.185l1.979,0.003l-0.001,0.883
			C19.337,91.813,18.673,91.523,18.039,91.185z M16.02,89.902l0.001-0.721l2,0.003l-0.003,1.988
			C17.32,90.798,16.656,90.367,16.02,89.902z M16.024,87.182l0.003-2l2,0.003l-0.003,2L16.024,87.182z M16.03,83.182l0.003-2
			l2,0.003l-0.003,2L16.03,83.182z M16.036,79.182l0.003-2l2,0.003l-0.003,2L16.036,79.182z M16.042,75.182l0.003-2l2,0.003
			l-0.003,2L16.042,75.182z M16.047,71.182l0.003-2l2,0.003l-0.003,2L16.047,71.182z M16.053,67.182l0.003-2l2,0.003l-0.003,2
			L16.053,67.182z"/>
	</g>
</g>
<g id="right">
	<g id="white_x5F_bg_2_">
		<path fill-rule="evenodd" clip-rule="evenodd" fill="#FFFFFF" d="M77.597,93.121V59.25c8.479,0.973,15.063,8.196,15.051,16.962
			C92.634,84.961,86.056,92.151,77.597,93.121z"/>
	</g>
	<path id="body_x5F_right" fill-rule="evenodd" clip-rule="evenodd" fill="#242424" d="M77.275,97.128
		c-0.789,2.364-2.994,4.081-5.624,4.081c-3.288,0-5.953-2.665-5.953-5.953V57.131c0-3.287,2.665-5.953,5.953-5.953
		c2.618,0,4.816,1.701,5.614,4.05c10.831,0.821,19.37,9.876,19.37,20.95C96.636,87.248,88.102,96.301,77.275,97.128z M73.636,57.146
		c0-1.087-0.882-1.969-1.969-1.969s-1.969,0.882-1.969,1.969v38.063c0,1.088,0.882,1.969,1.969,1.969s1.969-0.881,1.969-1.969
		V57.146z M77.604,59.311v33.76c8.459-0.967,15.037-8.134,15.051-16.854C92.667,67.479,86.084,60.28,77.604,59.311z"/>
	<path id="red" fill-rule="evenodd" clip-rule="evenodd" fill="#EE6A56" d="M71.66,55.193c1.088,0,1.969,0.882,1.969,1.969v38.063
		c0,1.088-0.881,1.969-1.969,1.969s-1.969-0.881-1.969-1.969V57.162C69.691,56.075,70.572,55.193,71.66,55.193z"/>
	<g id="red_x5F_dark">
		<path fill-rule="evenodd" clip-rule="evenodd" fill="#D86555" d="M69.68,61.818l0.003-2l4,0.006l-0.003,2L69.68,61.818z"/>
		<path fill-rule="evenodd" clip-rule="evenodd" fill="#D86555" d="M69.672,67.818l0.002-2l4,0.006l-0.002,2L69.672,67.818z"/>
		<path fill-rule="evenodd" clip-rule="evenodd" fill="#D86555" d="M69.662,73.818l0.004-2l4,0.006l-0.004,2L69.662,73.818z"/>
		<path fill-rule="evenodd" clip-rule="evenodd" fill="#D86555" d="M69.654,79.818l0.002-2l4,0.006l-0.002,2L69.654,79.818z"/>
		<path fill-rule="evenodd" clip-rule="evenodd" fill="#D86555" d="M69.645,85.818l0.004-2l4,0.006l-0.004,2L69.645,85.818z"/>
		<path fill-rule="evenodd" clip-rule="evenodd" fill="#D86555" d="M69.637,91.818l0.002-2l4,0.006l-0.002,2L69.637,91.818z"/>
	</g>
	<g id="grays">
		<path fill-rule="evenodd" clip-rule="evenodd" fill="#E5E5E5" d="M83.641,63.248l0.003-1.987c0.698,0.374,1.362,0.805,1.998,1.271
			l-0.001,0.72L83.641,63.248z M81.638,65.245l0.003-2l2,0.003l-0.003,2L81.638,65.245z M81.635,67.245l-2-0.003l0.003-2l2,0.003
			L81.635,67.245z M81.629,71.245l-2-0.003l0.003-2l2,0.003L81.629,71.245z M81.623,75.245l-2-0.003l0.003-2l2,0.003L81.623,75.245z
			 M81.617,79.245l-2-0.003l0.003-2l2,0.003L81.617,79.245z M81.611,83.245l-2-0.003l0.003-2l2,0.003L81.611,83.245z M81.605,87.245
			l-2-0.003l0.003-2l2,0.003L81.605,87.245z M83.605,87.248l-0.003,2l-2-0.003l0.003-2L83.605,87.248z M81.611,83.245l2,0.003
			l-0.003,2l-2-0.003L81.611,83.245z M81.617,79.245l2,0.003l-0.003,2l-2-0.003L81.617,79.245z M81.623,75.245l2,0.003l-0.003,2
			l-2-0.003L81.623,75.245z M81.629,71.245l2,0.003l-0.003,2l-2-0.003L81.629,71.245z M81.635,67.245l2,0.003l-0.003,2l-2-0.003
			L81.635,67.245z M85.638,65.251l-0.003,2.001l-2-0.004l0.003-2L85.638,65.251z M85.632,69.252l-0.003,1.999l-2-0.003l0.003-2
			L85.632,69.252z M85.626,73.251l-0.003,2l-2-0.003l0.003-2L85.626,73.251z M85.62,77.252l-0.003,1.999l-2-0.003l0.003-2
			L85.62,77.252z M85.614,81.251l-0.003,2l-2-0.003l0.003-2L85.614,81.251z M85.608,85.251l-0.003,2l-2-0.003l0.003-2L85.608,85.251
			z M85.602,89.972c-0.638,0.463-1.302,0.892-2.002,1.265l0.003-1.988l2,0.003L85.602,89.972z M81.6,91.245l-2-0.003l0.003-2
			l2,0.003L81.6,91.245z M81.599,92.127l0.001-0.882l1.979,0.003C82.943,91.586,82.279,91.872,81.599,92.127z M77.598,93.111
			l0.002-1.872l2,0.003l-0.002,1.5C78.943,92.899,78.279,93.033,77.598,93.111z M77.603,89.239l0.003-2l2,0.003l-0.003,2
			L77.603,89.239z M77.608,85.239l0.003-2l2,0.003l-0.003,2L77.608,85.239z M77.614,81.239l0.003-2l2,0.003l-0.003,2L77.614,81.239z
			 M77.62,77.239l0.003-2l2,0.003l-0.003,2L77.62,77.239z M77.626,73.239l0.003-2l2,0.003l-0.003,2L77.626,73.239z M77.632,69.239
			l0.003-1.999l2,0.002l-0.003,2L77.632,69.239z M77.638,65.239l0.003-2l2,0.003l-0.003,2L77.638,65.239z M79.644,61.243
			l1.999,0.002l-0.002,2l-2-0.003L79.644,61.243z M77.646,59.367c0.682,0.081,1.345,0.216,1.999,0.376l-0.002,1.5l-2-0.004
			L77.646,59.367z M83.623,61.248l-1.98-0.003l0.002-0.882C82.324,60.621,82.988,60.909,83.623,61.248z"/>
	</g>
</g>
</svg>
