<?xml version="1.0" encoding="utf-8"?>
<!-- Generator: Adobe Illustrator 16.0.0, SVG Export Plug-In . SVG Version: 6.00 Build 0)  -->
<!DOCTYPE svg PUBLIC "-//W3C//DTD SVG 1.1//EN" "http://www.w3.org/Graphics/SVG/1.1/DTD/svg11.dtd">
<svg version="1.1" id="Слой_1" xmlns="http://www.w3.org/2000/svg" xmlns:xlink="http://www.w3.org/1999/xlink" x="0px" y="0px"
	 width="40px" height="40px" viewBox="0 0 40 40" enable-background="new 0 0 40 40" xml:space="preserve">
<path fill="#242424" d="M20.089,0.341c-8.109,0-14.707,6.597-14.707,14.708c0,5.091,2.588,9.751,6.922,12.461
	c0.267,0.166,0.432,0.467,0.432,0.78v7.594c0,2.026,1.649,3.676,3.676,3.676h7.354c2.027,0,3.676-1.649,3.676-3.676V28.29
	c0-0.313,0.167-0.614,0.435-0.781c4.333-2.709,6.919-7.369,6.919-12.46C34.796,6.938,28.199,0.341,20.089,0.341z M16.412,35.884
	v-2.451h7.355l0.001,2.451H16.412z M16.412,30.98v-2.451h7.354l0.001,2.451H16.412z M20.089,26.078
	c-6.092,0-11.03-4.937-11.03-11.029c0-6.093,4.938-11.031,11.03-11.031c6.093,0,11.03,4.938,11.03,11.031
	C31.119,21.142,26.182,26.078,20.089,26.078z"/>
</svg>
