<?xml version="1.0" encoding="utf-8"?>
<!-- Generator: Adobe Illustrator 16.0.0, SVG Export Plug-In . SVG Version: 6.00 Build 0)  -->
<!DOCTYPE svg PUBLIC "-//W3C//DTD SVG 1.1//EN" "http://www.w3.org/Graphics/SVG/1.1/DTD/svg11.dtd">
<svg version="1.1" id="notebook" xmlns="http://www.w3.org/2000/svg" xmlns:xlink="http://www.w3.org/1999/xlink" x="0px" y="0px"
	 width="82px" height="107px" viewBox="0 0 82 107" enable-background="new 0 0 82 107" xml:space="preserve">
<rect id="white" x="12.5" y="2.25" fill-rule="evenodd" clip-rule="evenodd" fill="#FFFFFF" width="65.75" height="96.5"/>
<rect id="red" x="12.875" y="52.5" fill-rule="evenodd" clip-rule="evenodd" fill="#ED6A56" width="66.875" height="18.25"/>
<path id="body" fill-rule="evenodd" clip-rule="evenodd" fill="#242424" d="M74.002,102h-6h-4H49.525l0.459,3.867l0,0l0.002,0.018
	l-0.004,0.001c0.016,0.124,0.01,0.252-0.023,0.38c-0.143,0.536-0.691,0.854-1.225,0.71c-0.129-0.034-0.236-0.097-0.336-0.173
	l-0.006,0.008l-4.314-3.245l0.002-0.003c-0.109-0.082-0.201-0.183-0.27-0.3L43.086,102H12.002c-1.104,0-2-0.895-2-2V47.249
	L0.133,30.067c-0.129-0.223-0.172-0.495-0.101-0.763c0.071-0.268,0.245-0.481,0.467-0.61l6.127-3.557
	c0.222-0.128,0.492-0.171,0.76-0.1c0.267,0.072,0.479,0.246,0.607,0.469l2.009,3.497V2c0-1.104,0.896-2,2-2h62c4.418,0,8,3.582,8,8
	v86C82.002,98.418,78.42,102,74.002,102z M14.002,98h26.786L27.002,74h-13V98z M14.002,70h10.702l-4.449-7.747l-0.359,0.208
	c-0.222,0.129-0.492,0.174-0.759,0.102c-0.268-0.072-0.48-0.246-0.608-0.469l-4.526-7.881V70z M64.002,4h-50v26.384l8.938,16.878
	l-0.006,0.003c0.112,0.216,0.154,0.471,0.086,0.724c-0.143,0.537-0.691,0.855-1.226,0.711c-0.28-0.075-0.495-0.267-0.62-0.506
	l-0.006,0.003l-7.167-13.533v1.302L22.063,50h41.939V4z M64.002,54H24.361l2.029,3.532c0.128,0.224,0.171,0.495,0.1,0.763
	c-0.071,0.269-0.251,0.471-0.475,0.597l0.009,0.015l-0.359,0.208L31.917,70h32.084V54z M64.002,74H34.215l13.787,24h16V74z
	 M78.002,8c0-2.209-1.791-4-4-4h-6v46h10V8z M78.002,54h-10v16h10V54z M78.002,74h-10v24h6c2.209,0,4-1.791,4-4V74z"/>
<path id="gray" fill-rule="evenodd" clip-rule="evenodd" fill="#C4C4C3" d="M14.031,74L14.031,74h2v2h-2V74z M18.031,76v2h-2v-2
	H18.031z M18.031,74h2v2h-2V74z M22.031,76v2h-2v-2H22.031z M22.031,74h2v2h-2V74z M26.031,76v2h-2v-2H26.031z M26.457,74l1.148,2
	h-1.574v-2H26.457z M28.754,78h-0.723v-1.26L28.754,78z M28.031,80h-2v-2h2V80z M24.031,80h-2v-2h2V80z M20.031,80h-2v-2h2V80z
	 M14.031,80v-2h2v2H14.031z M35.967,78h0.064v0.111L35.967,78z M34.031,74.629V74h2v2h-1.213L34.031,74.629z M38.031,76v2h-2v-2
	H38.031z M38.031,74h2v2h-2V74z M42.031,76v2h-2v-2H42.031z M42.031,74h2v2h-2V74z M46.031,76v2h-2v-2H46.031z M46.031,74h2v2h-2V74
	z M50.031,76v2h-2v-2H50.031z M50.031,74h2v2h-2V74z M54.031,76v2h-2v-2H54.031z M54.031,74h2v2h-2V74z M58.031,76v2h-2v-2H58.031z
	 M58.031,74h2v2h-2V74z M62.031,76v2h-2v-2H62.031z M64.031,74v2h-2v-2H64.031z M64.031,80h-2v-2h2V80z M60.031,80h-2v-2h2V80z
	 M56.031,80h-2v-2h2V80z M52.031,80h-2v-2h2V80z M48.031,80h-2v-2h2V80z M44.031,80h-2v-2h2V80z M40.031,80h-2v-2h2V80z M76.031,78
	v-2h2v2H76.031z M76.031,80h-2v-2h2V80z M72.031,78v-2h2v2H72.031z M72.031,80h-2v-2h2V80z M68.031,78v-2h2v2H68.031z M70.031,74h2
	v2h-2V74z M74.031,74h2v2h-2V74z M74.031,46v-2h2v2H74.031z M74.031,40h2v2h-2V40z M74.031,36h2v2h-2V36z M74.031,32h2v2h-2V32z
	 M74.031,28h2v2h-2V28z M74.031,24h2v2h-2V24z M74.031,20h2v2h-2V20z M74.031,16h2v2h-2V16z M74.031,12h2v2h-2V12z M74.031,8h2v2h-2
	V8z M72.031,8V6h2v2H72.031z M72.031,10h-2V8h2V10z M72.031,14h-2v-2h2V14z M72.031,18h-2v-2h2V18z M72.031,22h-2v-2h2V22z
	 M72.031,26h-2v-2h2V26z M72.031,30h-2v-2h2V30z M72.031,34h-2v-2h2V34z M72.031,38h-2v-2h2V38z M72.031,42h-2v-2h2V42z M72.031,46
	h-2v-2h2V46z M74.031,46v2h-2v-2H74.031z M72.031,42h2v2h-2V42z M72.031,38h2v2h-2V38z M72.031,34h2v2h-2V34z M72.031,30h2v2h-2V30z
	 M72.031,26h2v2h-2V26z M72.031,22h2v2h-2V22z M72.031,18h2v2h-2V18z M72.031,14h2v2h-2V14z M72.031,10h2v2h-2V10z M78.031,46v2h-2
	v-2H78.031z M76.031,50h-2v-2h2V50z M72.031,50h-2v-2h2V50z M68.031,48v-2h2v2H68.031z M68.031,44v-2h2v2H68.031z M68.031,40v-2h2v2
	H68.031z M68.031,36v-2h2v2H68.031z M68.031,32v-2h2v2H68.031z M68.031,28v-2h2v2H68.031z M68.031,24v-2h2v2H68.031z M68.031,20v-2
	h2v2H68.031z M68.031,16v-2h2v2H68.031z M68.031,12v-2h2v2H68.031z M68.031,8V6h2v2H68.031z M70.031,4h2v2h-2V4z M74.031,4L74.031,4
	c0.732,0,1.409,0.211,2,0.555V6h-2V4z M77.477,6c0.344,0.59,0.555,1.268,0.555,2h-2V6H77.477z M78.031,10v2h-2v-2H78.031z
	 M78.031,14v2h-2v-2H78.031z M78.031,18v2h-2v-2H78.031z M78.031,22v2h-2v-2H78.031z M78.031,26v2h-2v-2H78.031z M78.031,30v2h-2v-2
	H78.031z M78.031,34v2h-2v-2H78.031z M78.031,38v2h-2v-2H78.031z M78.031,42v2h-2v-2H78.031z"/>
</svg>
