<?xml version="1.0" encoding="utf-8"?>
<!-- Generator: Adobe Illustrator 16.0.0, SVG Export Plug-In . SVG Version: 6.00 Build 0)  -->
<!DOCTYPE svg PUBLIC "-//W3C//DTD SVG 1.1//EN" "http://www.w3.org/Graphics/SVG/1.1/DTD/svg11.dtd">
<svg version="1.1" id="Слой_1" xmlns="http://www.w3.org/2000/svg" xmlns:xlink="http://www.w3.org/1999/xlink" x="0px" y="0px"
	 width="40px" height="40px" viewBox="0 0 40 40" enable-background="new 0 0 40 40" xml:space="preserve">
<path fill="#242424" d="M38.473,1.631c-2.19-2.193-7.542-0.676-13.801,3.387c-1.503-0.473-3.099-0.729-4.754-0.729
	c-8.766,0-15.897,7.131-15.897,15.897c0,1.655,0.256,3.252,0.728,4.753c-4.062,6.259-5.579,11.612-3.387,13.803
	c2.194,2.192,7.549,0.682,13.811-3.384c1.499,0.472,3.093,0.726,4.746,0.726c8.766,0,15.895-7.133,15.895-15.898
	c0-1.653-0.252-3.246-0.722-4.746C39.154,9.178,40.667,3.825,38.473,1.631z M35.23,4.874c1.175,1.174,0.522,3.958-1.483,7.502
	c-1.421-2.507-3.501-4.587-6.006-6.01C31.276,4.368,34.058,3.701,35.23,4.874z M19.918,7.958c5.273,0,9.766,3.363,11.478,8.053
	c-1.912,2.673-4.359,5.565-7.225,8.428c-2.862,2.865-5.756,5.313-8.429,7.227c-4.689-1.714-8.052-6.206-8.052-11.479
	C7.689,13.443,13.175,7.958,19.918,7.958z M4.604,35.498c-1.173-1.171-0.506-3.952,1.492-7.489c1.423,2.507,3.504,4.587,6.011,6.008
	C8.562,36.021,5.781,36.675,4.604,35.498z M32.146,20.186c0,6.742-5.486,12.228-12.229,12.228c-0.201,0-0.398-0.02-0.599-0.029
	c2.242-1.754,4.533-3.762,6.785-6.012c2.252-2.254,4.258-4.543,6.012-6.786C32.125,19.787,32.146,19.985,32.146,20.186z"/>
</svg>
