<?xml version="1.0" encoding="utf-8"?>
<!-- Generator: Adobe Illustrator 16.0.0, SVG Export Plug-In . SVG Version: 6.00 Build 0)  -->
<!DOCTYPE svg PUBLIC "-//W3C//DTD SVG 1.1//EN" "http://www.w3.org/Graphics/SVG/1.1/DTD/svg11.dtd">
<svg version="1.1" id="Слой_1" xmlns="http://www.w3.org/2000/svg" xmlns:xlink="http://www.w3.org/1999/xlink" x="0px" y="0px"
	 width="40px" height="40px" viewBox="0 0 40 40" enable-background="new 0 0 40 40" xml:space="preserve">
<path fill-rule="evenodd" clip-rule="evenodd" fill="#242424" d="M35.787,20.609c-1.842,2.829-4.416,5.174-7.297,7.071
	c-0.279,4.584-2.604,8.854-6.381,11.549c-0.314,0.225-0.689,0.34-1.066,0.34c-0.237,0-0.475-0.045-0.702-0.139
	c-0.585-0.242-1.005-0.768-1.11-1.393c-0.279-1.65-1.02-3.48-2.111-5.328c-1.223,0.336-2.41,0.605-3.522,0.799
	c-0.104,0.02-0.21,0.027-0.314,0.027c-0.483,0-0.951-0.189-1.299-0.539l-4.983-4.982C6.579,27.594,6.388,26.99,6.49,26.4
	c0.193-1.111,0.464-2.297,0.798-3.52c-1.846-1.092-3.675-1.83-5.325-2.111c-0.625-0.104-1.15-0.525-1.392-1.11
	c-0.242-0.583-0.166-1.253,0.202-1.769c2.695-3.777,6.963-6.101,11.547-6.381c1.895-2.88,4.243-5.457,7.069-7.298
	c5.363-3.49,11.736-3.78,18.341-3.78c1.016,0,1.838,0.823,1.838,1.837C39.568,8.611,39.275,15.251,35.787,20.609z M21.766,35.539
	c1.664-1.619,2.824-3.678,3.361-5.918c-1.654,0.846-3.344,1.561-5.01,2.15C20.818,33.039,21.381,34.305,21.766,35.539z
	 M4.464,18.236c1.231,0.385,2.496,0.949,3.764,1.648c0.589-1.667,1.303-3.356,2.149-5.011C8.139,15.413,6.083,16.572,4.464,18.236z
	 M21.395,7.29c-5.848,3.81-9.723,12.021-11.109,18.813l3.611,3.609c6.792-1.385,15.003-5.258,18.812-11.107
	c2.639-4.055,3.105-9.131,3.176-14.49C30.525,4.186,25.449,4.652,21.395,7.29z M26.707,16.354c-1.691,0-3.063-1.371-3.063-3.063
	c0-1.691,1.371-3.061,3.063-3.061c1.693,0,3.063,1.37,3.063,3.061C29.77,14.984,28.4,16.354,26.707,16.354z M2.956,33.223
	c0.381-1.254,1.548-2.172,2.93-2.172c1.691,0,3.062,1.373,3.062,3.064c0,1.381-0.915,2.549-2.172,2.928l-4.386,1.33
	C2.334,38.393,2.274,38.4,2.212,38.4c-0.338,0-0.612-0.271-0.612-0.613c0-0.063,0.009-0.121,0.026-0.176L2.956,33.223z"/>
</svg>
