<?xml version="1.0" encoding="utf-8"?>
<!-- Generator: Adobe Illustrator 16.0.0, SVG Export Plug-In . SVG Version: 6.00 Build 0)  -->
<!DOCTYPE svg PUBLIC "-//W3C//DTD SVG 1.1//EN" "http://www.w3.org/Graphics/SVG/1.1/DTD/svg11.dtd">
<svg version="1.1" id="screens" xmlns="http://www.w3.org/2000/svg" xmlns:xlink="http://www.w3.org/1999/xlink" x="0px" y="0px"
	 width="112px" height="102px" viewBox="0 0 112 102" enable-background="new 0 0 112 102" xml:space="preserve">
<rect id="white_x5F_2" x="3.339" y="3.582" fill-rule="evenodd" clip-rule="evenodd" fill="#FFFFFF" width="89.838" height="75.058"/>
<path id="body" fill-rule="evenodd" clip-rule="evenodd" fill="#242424" d="M104,102H80c-4.418,0-8-3.58-8-8V82H8
	c-4.418,0-8-3.582-8-8V8c0-4.418,3.582-8,8-8h80c4.418,0,8,3.582,8,8v26h8c4.418,0,8,3.582,8,8v52C112,98.42,108.418,102,104,102z
	 M92,8c0-2.209-1.791-4-4-4H8C5.791,4,4,5.791,4,8v8h88v4H4v54c0,2.209,1.791,4,4,4h64V42c0-4.418,3.582-8,8-8h12V8z M108,42
	c0-2.209-1.791-4-4-4H80c-2.209,0-4,1.791-4,4v6h32V42z M108,52H76v32h32V52z M108,88H76v6c0,2.209,1.791,4,4,4h24
	c2.209,0,4-1.791,4-4V88z"/>
<g id="desctop_x5F_block">
	<path id="green_1_" fill-rule="evenodd" clip-rule="evenodd" fill="#85AB70" d="M8.259,23.559h38v28h-38V23.559z"/>
	<path id="yellow" fill-rule="evenodd" clip-rule="evenodd" fill="#F7D549" d="M50.259,23.559h37.999v28H50.259V23.559z"/>
	<path id="blue" fill-rule="evenodd" clip-rule="evenodd" fill="#86AEDC" d="M8.259,55.559h63.999v18H8.259V55.559z"/>
	<g id="grays_1_">
		<path fill-rule="evenodd" clip-rule="evenodd" fill="#779A65" d="M10.259,41.559v-2h2v2H10.259z M12.259,45.559h-2v-2h2V45.559z
			 M12.259,49.559h-2v-2h2V49.559z M12.259,43.559v-2h2v2H12.259z M14.259,47.559h-2v-2h2V47.559z M14.259,51.56h-2v-2h2V51.56z
			 M8.259,51.56v-2h2v2H8.259z M8.259,47.559v-2h2v2H8.259z M8.259,43.559v-2h2v2H8.259z M8.259,37.56h2v2h-2V37.56z M12.259,37.56
			h2v2h-2V37.56z"/>
		<path fill-rule="evenodd" clip-rule="evenodd" fill="#779A65" d="M14.259,27.559h-2v-2h2V27.559z M14.259,31.56h-2v-2.001h2V31.56
			z M14.259,35.559h-2v-2h2V35.559z M10.259,37.56v-2.001h2v2.001H10.259z M10.259,33.559V31.56h2v1.999H10.259z M10.259,29.559v-2
			h2v2H10.259z M10.259,25.559v-2h2v2H10.259z M10.259,27.559h-2v-2h2V27.559z M10.259,31.56h-2v-2.001h2V31.56z M10.259,35.559h-2
			v-2h2V35.559z"/>
		<path fill-rule="evenodd" clip-rule="evenodd" fill="#DEBF41" d="M52.259,41.559v-2h2v2H52.259z M54.259,45.559h-2v-2h2V45.559z
			 M54.259,49.559h-2v-2h2V49.559z M54.259,43.559v-2h2v2H54.259z M56.259,47.559h-2v-2h2V47.559z M56.259,51.56h-2v-2h2V51.56z
			 M50.259,51.56v-2h2v2H50.259z M50.259,47.559v-2h2v2H50.259z M50.259,43.559v-2h2v2H50.259z M50.259,37.56h2v2h-2V37.56z
			 M54.259,37.56h2v2h-2V37.56z"/>
		<path fill-rule="evenodd" clip-rule="evenodd" fill="#DEBF41" d="M56.259,27.559h-2v-2h2V27.559z M56.259,31.56h-2v-2.001h2V31.56
			z M56.259,35.559h-2v-2h2V35.559z M52.259,37.56v-2.001h2v2.001H52.259z M52.259,33.559V31.56h2v1.999H52.259z M52.259,29.559v-2
			h2v2H52.259z M52.259,25.559v-2h2v2H52.259z M52.259,27.559h-2v-2h2V27.559z M52.259,31.56h-2v-2.001h2V31.56z M52.259,35.559h-2
			v-2h2V35.559z"/>
		<path fill-rule="evenodd" clip-rule="evenodd" fill="#789CC6" d="M10.259,73.559v-2h2v2H10.259z M8.259,69.559h2v2h-2V69.559z
			 M12.259,69.559h2v2h-2V69.559z"/>
		<path fill-rule="evenodd" clip-rule="evenodd" fill="#789CC6" d="M14.259,59.559h-2v-2h2V59.559z M14.259,63.559h-2v-2h2V63.559z
			 M14.259,67.559h-2v-2h2V67.559z M10.259,69.559v-2h2v2H10.259z M10.259,65.559v-2h2v2H10.259z M10.259,61.559v-2h2v2H10.259z
			 M10.259,57.559v-2h2v2H10.259z M10.259,59.559h-2v-2h2V59.559z M10.259,63.559h-2v-2h2V63.559z M10.259,67.559h-2v-2h2V67.559z"
			/>
	</g>
</g>
<rect id="white" x="75.626" y="37.646" fill-rule="evenodd" clip-rule="evenodd" fill="#FFFFFF" width="32.794" height="60.97"/>
<g id="body_x5F_2">
	<path fill-rule="evenodd" clip-rule="evenodd" fill="#242424" d="M104.022,102.021h-24c-4.418,0-8-3.58-8-8v-52
		c0-4.418,3.582-8,8-8h24c4.418,0,8,3.582,8,8v52C112.022,98.441,108.44,102.021,104.022,102.021z M108.022,42.022
		c0-2.209-1.791-4-4-4h-24c-2.209,0-4,1.791-4,4v6h32V42.022z M108.022,52.022h-32v31.999h32V52.022z M108.022,88.021h-32v6
		c0,2.209,1.791,4,4,4h24c2.209,0,4-1.791,4-4V88.021z"/>
</g>
<g id="red">
	<path fill-rule="evenodd" clip-rule="evenodd" fill="#ED6A56" d="M93,90.058c1.656,0,3,1.343,3,3c0,1.656-1.344,3-3,3
		c-1.658,0-3-1.344-3-3C90,91.4,91.342,90.058,93,90.058z"/>
</g>
<g id="gray">
	<path fill-rule="evenodd" clip-rule="evenodd" fill="#DAD9D9" d="M88,42.156c0.553,0,1,0.447,1,1s-0.447,1-1,1s-1-0.447-1-1
		S87.447,42.156,88,42.156z"/>
	<path fill-rule="evenodd" clip-rule="evenodd" fill="#DAD9D9" d="M91,42.156h5c0.553,0,1,0.447,1,1s-0.447,1-1,1h-5
		c-0.553,0-1-0.447-1-1S90.447,42.156,91,42.156z"/>
	<path fill-rule="evenodd" clip-rule="evenodd" fill="#DAD9D9" d="M10,8.156c1.104,0,2,0.896,2,2c0,1.105-0.896,2-2,2s-2-0.895-2-2
		C8,9.051,8.896,8.156,10,8.156z"/>
	<path fill-rule="evenodd" clip-rule="evenodd" fill="#DAD9D9" d="M16,8.156c1.104,0,2,0.896,2,2c0,1.105-0.896,2-2,2s-2-0.895-2-2
		C14,9.051,14.896,8.156,16,8.156z"/>
	<path fill-rule="evenodd" clip-rule="evenodd" fill="#DAD9D9" d="M22,8.156c1.104,0,2,0.896,2,2c0,1.105-0.896,2-2,2s-2-0.895-2-2
		C20,9.051,20.896,8.156,22,8.156z"/>
</g>
<g id="mobile_x5F_screens">
	<path id="green" fill-rule="evenodd" clip-rule="evenodd" fill="#85AB70" d="M80.022,56.131h24v10h-24V56.131z"/>
	<path id="yewllo" fill-rule="evenodd" clip-rule="evenodd" fill="#F7D549" d="M80.022,70.131h24v10h-24V70.131z"/>
	<g id="grays">
		<path fill-rule="evenodd" clip-rule="evenodd" fill="#779A65" d="M86.022,60.131h-2v-2h2V60.131z M86.022,64.131h-2v-2h2V64.131z
			 M82.022,66.131v-2h2v2H82.022z M82.022,62.131v-2h2v2H82.022z M82.022,58.131v-2h2v2H82.022z M82.022,60.131h-2v-2h2V60.131z
			 M82.022,64.131h-2v-2h2V64.131z"/>
		<path fill-rule="evenodd" clip-rule="evenodd" fill="#DEBF41" d="M86.022,74.131h-2v-2h2V74.131z M86.022,78.131h-2v-2h2V78.131z
			 M82.022,80.131v-2h2v2H82.022z M82.022,76.131v-2h2v2H82.022z M82.022,72.131v-2h2v2H82.022z M82.022,74.131h-2v-2h2V74.131z
			 M82.022,78.131h-2v-2h2V78.131z"/>
	</g>
</g>
</svg>
