<?xml version="1.0" encoding="utf-8"?>
<!-- Generator: Adobe Illustrator 16.0.0, SVG Export Plug-In . SVG Version: 6.00 Build 0)  -->
<!DOCTYPE svg PUBLIC "-//W3C//DTD SVG 1.1//EN" "http://www.w3.org/Graphics/SVG/1.1/DTD/svg11.dtd">
<svg version="1.1" id="tablet" xmlns="http://www.w3.org/2000/svg" xmlns:xlink="http://www.w3.org/1999/xlink" x="0px" y="0px"
	 width="224px" height="194px" viewBox="0 0 224 194" enable-background="new 0 0 224 194" xml:space="preserve">
<path id="white_x5F_bg" fill-rule="evenodd" clip-rule="evenodd" fill="#FFFFFF" d="M193.594,38H208.5c4.418,0,8,3.582,8,8v132
	c0,4.418-3.582,8-8,8h-192c-4.418,0-8-3.582-8-8V46c0-4.418,3.582-8,8-8h154H193.594z"/>
<path id="body" fill-rule="evenodd" clip-rule="evenodd" fill="#242424" d="M208.5,194h-192c-8.836,0-16-7.163-16-16V46
	c0-8.836,7.164-16,16-16h192c8.836,0,16,7.164,16,16v132C224.5,186.837,217.336,194,208.5,194z M216.5,46c0-4.418-3.582-8-8-8h-192
	c-4.418,0-8,3.582-8,8v132c0,4.418,3.582,8,8,8h192c4.418,0,8-3.582,8-8V46z"/>
<path id="gray" fill-rule="evenodd" clip-rule="evenodd" fill="#DAD9D9" d="M60.5,170h-4h-48v-4h48V58h-48v-4h48h4h140v116H60.5z
	 M196.5,58h-136v108h136V58z M208.363,102c1.104,0,2,0.895,2,2v12c0,1.104-0.896,2-2,2s-2-0.896-2-2v-12
	C206.363,102.895,207.259,102,208.363,102z"/>
<path id="pen" fill-rule="evenodd" clip-rule="evenodd" fill="#242424" d="M205.558,9l-3,5.196c1.914,1.104,2.568,3.551,1.465,5.464
	l-26,45.034l-17.32-10l17-29.445l0,0l9-15.588c1.104-1.913,3.551-2.568,5.463-1.464l3-5.196c1.658-2.87,5.328-3.853,8.197-2.196
	C206.231,2.461,207.216,6.131,205.558,9z M176.022,68.158l-23,39.837c-0.206,0.356-0.52,0.592-0.862,0.76l0.017,0.033l-12.928,6.393
	l-0.018-0.033c-0.578,0.285-1.27,0.318-1.869-0.027c-0.602-0.347-0.917-0.963-0.959-1.605l-0.037,0.002l-0.928-14.393l0.036-0.002
	c-0.025-0.382,0.021-0.771,0.228-1.127l23-39.837L176.022,68.158z M148.63,91.603c-0.553,0.957-0.225,2.18,0.732,2.732
	c0.956,0.553,2.18,0.225,2.731-0.732l8-13.855c0.552-0.957,0.225-2.18-0.731-2.732c-0.957-0.553-2.18-0.225-2.732,0.732
	L148.63,91.603z"/>
<g id="gray_x5F_dots">
	<g>
		<path fill-rule="evenodd" clip-rule="evenodd" fill="#E5E5E5" d="M72.486,166v-4h-4v4H72.486z M60.486,166h4v-4h-4V166z
			 M64.486,162h4v-4h-4V162z M72.486,158v-4h-4v4H72.486z M60.486,154v4h4v-4H60.486z M64.486,154h4v-4h-4V154z M72.486,150v-4h-4v4
			H72.486z M60.486,146v4h4v-4H60.486z M64.486,146h4v-4h-4V146z M72.486,142v-4h-4v4H72.486z M60.486,138v4h4v-4H60.486z
			 M64.486,138h4v-4h-4V138z M72.486,134v-4h-4v4H72.486z M60.486,130v4h4v-4H60.486z M64.486,130h4v-4h-4V130z M72.486,126v-4h-4v4
			H72.486z M60.486,122v4h4v-4H60.486z M64.486,122h4v-4h-4V122z M72.486,118v-4h-4v4H72.486z M60.486,114v4h4v-4H60.486z
			 M64.486,114h4v-4h-4V114z M72.486,110v-4h-4v4H72.486z M60.486,106v4h4v-4H60.486z M64.486,106h4v-4h-4V106z M72.486,102v-4h-4v4
			H72.486z M60.486,98v4h4v-4H60.486z M64.486,98h4v-4h-4V98z M72.486,94v-4h-4v4H72.486z M60.486,90v4h4v-4H60.486z M64.486,90h4
			v-4h-4V90z M72.486,86v-4h-4v4H72.486z M60.486,82v4h4v-4H60.486z M64.486,82h4v-4h-4V82z M72.486,78v-4h-4v4H72.486z M60.486,74
			v4h4v-4H60.486z M64.486,74h4v-4h-4V74z M72.486,70v-4h-4v4H72.486z M60.486,66v4h4v-4H60.486z M64.486,62v4h4v-4H64.486z
			 M72.486,58h-4v4h4V58z M60.486,58v4h4v-4H60.486z"/>
	</g>
</g>
<g id="red">
	<g>
		<path fill-rule="evenodd" clip-rule="evenodd" fill="#ED6A56" d="M21.167,89h24v-8h-24V89z M31.167,69h-10v8h10V69z M35.167,69v8
			h10v-8H35.167z"/>
	</g>
</g>
<path id="blue" fill-rule="evenodd" clip-rule="evenodd" fill="#86AEDC" d="M33.167,130c-8.836,0-16-7.162-16-16
	c0-8.836,7.164-16,16-16c8.836,0,16,7.164,16,16C49.167,122.838,42.002,130,33.167,130z M33.167,108c-3.313,0-6,2.688-6,6
	c0,3.314,2.687,6,6,6s6-2.686,6-6C39.167,110.688,36.48,108,33.167,108z"/>
<g id="green">
	<g>
		<path fill-rule="evenodd" clip-rule="evenodd" fill="#85AB70" d="M21.167,137v8h24v-8H21.167z M21.167,157h24v-8h-24V157z"/>
	</g>
</g>
</svg>
