<?xml version="1.0" encoding="utf-8"?>
<!-- Generator: Adobe Illustrator 16.0.0, SVG Export Plug-In . SVG Version: 6.00 Build 0)  -->
<!DOCTYPE svg PUBLIC "-//W3C//DTD SVG 1.1//EN" "http://www.w3.org/Graphics/SVG/1.1/DTD/svg11.dtd">
<svg version="1.1" id="table" xmlns="http://www.w3.org/2000/svg" xmlns:xlink="http://www.w3.org/1999/xlink" x="0px" y="0px"
	 width="128px" height="90px" viewBox="0 0 128 90" enable-background="new 0 0 128 90" xml:space="preserve">
<rect id="yellow_x5F_2" x="12" y="40" fill-rule="evenodd" clip-rule="evenodd" fill="#F7D549" width="36" height="19"/>
<rect id="yellow" x="12" y="63" fill-rule="evenodd" clip-rule="evenodd" fill="#F7D549" width="36" height="19"/>
<g id="yellow_x5F_dark">
	<g>
		<path fill-rule="evenodd" clip-rule="evenodd" fill="#DEBF41" d="M42,46h2v-2h-2V46z M46,46h2v-2h-2V46z M36,40h-2v1.999h2V40z
			 M40,40h-2v1.999h2V40z M38,46h2v-2h-2V46z M44,40h-2v1.999h2V40z M28,40h-2v1.999h2V40z M24,40h-2v1.999h2V40z M32,40h-2v1.999h2
			V40z M16,42v2h2v-2H16z M34,46h2v-2h-2V46z M12,42v2h2v-2H12z M14,46h2v-2h-2V46z M32,42v2h2v-2H32z M16,40h-2v2h2V40z M20,40h-2
			v2h2V40z M24,42v2h2v-2H24z M20,42v2h2v-2H20z M28,42v2h2v-2H28z M44,42v2h2v-2H44z M18,46h2v-2h-2V46z M26,46h2v-2h-2V46z M46,40
			v1.999h2V40H46z M22,46h2v-2h-2V46z M40,42v2h2v-2H40z M30,46h2v-2h-2V46z M36,42v2h2v-2H36z M18,69h2v-2h-2V69z M14,69h2v-2h-2
			V69z M22,69h2v-2h-2V69z M12,65v2h2v-2H12z M34,69h2v-2h-2V69z M16,63h-2v2h2V63z M26,69h2v-2h-2V69z M42,69h2v-2h-2V69z M30,69h2
			v-2h-2V69z M38,69h2v-2h-2V69z M48,69v-2h-2v2H48z M40,65v2h2v-2H40z M32,65v2h2v-2H32z M40,63h-2v2h2V63z M16,65v2h2v-2H16z
			 M36,65v2h2v-2H36z M46,65h2v-2h-2V65z M44,67h2v-2h-2V67z M44,63h-2v2h2V63z M36,63h-2v2h2V63z M20,65v2h2v-2H20z M20,63h-2v2h2
			V63z M24,63h-2v2h2V63z M28,65v2h2v-2H28z M32,63h-2v2h2V63z M24,65v2h2v-2H24z M28,63h-2v2h2V63z"/>
	</g>
</g>
<rect id="white" x="52" y="40" fill-rule="evenodd" clip-rule="evenodd" fill="#FFFFFF" width="64" height="6"/>
<path id="white_x5F_dark" fill-rule="evenodd" clip-rule="evenodd" fill="#E5E5E5" d="M54,44v-2h-2v2H54z M56,46v-2h-2v2H56z M58,42
	h-2v2h2V42z M56,40h-2v1.999h2V40z M60,44h-2v2h2V44z M62,42h-2v2h2V42z M62,46h2v-2h-2V46z M66,44v-2h-2v2H66z M66,46h2v-2h-2V46z
	 M70,44v-2h-2v2H70z M70,46h2v-2h-2V46z M74,44v-2h-2v2H74z M74,46h2v-2h-2V46z M78,44v-2h-2v2H78z M78,46h2v-2h-2V46z M82,44v-2h-2
	v2H82z M82,46h2v-2h-2V46z M86,44v-2h-2v2H86z M86,46h2v-2h-2V46z M90,44v-2h-2v2H90z M92,46v-2h-2v2H92z M96,46v-2h-2v2H96z
	 M100,46v-2h-2v2H100z M104,46v-2h-2v2H104z M108,46v-2h-2v2H108z M112,46v-2h-2v2H112z M116,46v-2h-2v2H116z M114,42h-2v2h2V42z
	 M110,42h-2v2h2V42z M106,42h-2v2h2V42z M102,42h-2v2h2V42z M98,42h-2v2h2V42z M94,42h-2v2h2V42z M88,40h-2v2h2V40z M84,40h-2v2h2
	V40z M80,40h-2v2h2V40z M76,40h-2v2h2V40z M72,40h-2v2h2V40z M68,40h-2v2h2V40z M64,40h-2v2h2V40z M58,40v2h2v-2H58z M92,40h-2
	v1.999h2V40z M96,40h-2v1.999h2V40z M100,40h-2v1.999h2V40z M104,40h-2v1.999h2V40z M108,40h-2v1.999h2V40z M112,40h-2v1.999h2V40z
	 M116,40h-2v1.999h2V40z"/>
<rect id="white_x5F_bg" x="59.25" y="30.875" fill-rule="evenodd" clip-rule="evenodd" fill="#FFFFFF" width="50" height="6.625"/>
<rect id="white_x5F_bg_x5F_2" x="62.625" y="3.75" fill-rule="evenodd" clip-rule="evenodd" fill="#FFFFFF" width="42.625" height="25.25"/>
<path id="body" fill-rule="evenodd" clip-rule="evenodd" fill="#242424" d="M126,40h-6v48c0,1.104-0.896,2-2,2s-2-0.896-2-2V50H52v9
	v4v19v4v2c0,1.104-0.896,2-2,2s-2-0.896-2-2v-2H12v2c0,1.104-0.896,2-2,2s-2-0.896-2-2v-2v-4V63v-4V40H2c-1.104,0-2-0.896-2-2
	s0.896-2,2-2h22c-3.313,0-6-2.687-6-6s2.687-6,6-6v-2c0-1.104,0.896-2,2-2h12c1.104,0,2,0.896,2,2v14h16.367
	C56.144,35.371,56,34.705,56,34c0-2.609,1.675-4.806,4-5.633V6c0-3.313,2.687-6,6-6h36c3.313,0,6,2.687,6,6v22.367
	c2.325,0.827,4,3.023,4,5.633c0,0.705-0.145,1.371-0.367,2H126c1.104,0,2,0.896,2,2S127.104,40,126,40z M24,28c-1.104,0-2,0.896-2,2
	c0,1.105,0.896,2,2,2V28z M36,24h-8v12h8V24z M48,50v-4v-6H38H26H12v19h36V50z M48,63H12v19h36V63z M104,6c0-1.104-0.896-2-2-2H66
	c-1.104,0-2,0.896-2,2v22h40V6z M106,32H62c-1.104,0-2,0.896-2,2c0,1.105,0.896,2,2,2h44c1.104,0,2-0.895,2-2
	C108,32.896,107.104,32,106,32z M116,40h-10H62H52v6h64V40z M26,74h8c1.104,0,2,0.896,2,2s-0.896,2-2,2h-8c-1.104,0-2-0.896-2-2
	S24.896,74,26,74z M26,51h8c1.104,0,2,0.896,2,2c0,1.105-0.896,2-2,2h-8c-1.104,0-2-0.895-2-2C24,51.896,24.896,51,26,51z"/>
<rect id="red" x="28" y="27.75" fill-rule="evenodd" clip-rule="evenodd" fill="#ED6A56" width="8" height="8.25"/>
<g id="animate">
	<path id="green" fill-rule="evenodd" clip-rule="evenodd" fill="#85AB70" d="M68,8.125h10v16H68V8.125z"/>
	<path id="blue" fill-rule="evenodd" clip-rule="evenodd" fill="#86AEDC" d="M80,8.125h20v16H80V8.125z"/>
</g>
</svg>
