<?xml version="1.0" encoding="utf-8"?>
<!-- Generator: Adobe Illustrator 16.0.0, SVG Export Plug-In . SVG Version: 6.00 Build 0)  -->
<!DOCTYPE svg PUBLIC "-//W3C//DTD SVG 1.1//EN" "http://www.w3.org/Graphics/SVG/1.1/DTD/svg11.dtd">
<svg version="1.1" id="tv" xmlns="http://www.w3.org/2000/svg" xmlns:xlink="http://www.w3.org/1999/xlink" x="0px" y="0px"
	 width="224px" height="204px" viewBox="0 0 224 204" enable-background="new 0 0 224 204" xml:space="preserve">
<path id="body" fill-rule="evenodd" clip-rule="evenodd" fill="#242424" d="M207.5,195.5h-8c0,4.418-3.582,8-8,8s-8-3.582-8-8h-144
	c0,4.418-3.582,8-8,8s-8-3.582-8-8h-8c-8.836,0-16-7.164-16-16v-124c0-8.836,7.164-16,16-16h76.101
	c0.329-3.313,1.479-6.38,3.225-9.018L79.564,15.221C78.905,15.397,78.215,15.5,77.5,15.5c-4.418,0-8-3.582-8-8s3.582-8,8-8
	s8,3.582,8,8c0,0.715-0.103,1.405-0.279,2.064l15.262,15.262c3.161-2.093,6.941-3.326,11.017-3.326
	c4.076,0,7.855,1.233,11.018,3.326l15.262-15.262c-0.177-0.66-0.279-1.349-0.279-2.064c0-4.418,3.582-8,8-8s8,3.582,8,8
	s-3.582,8-8,8c-0.715,0-1.404-0.103-2.064-0.279l-15.262,15.261c1.746,2.638,2.896,5.705,3.225,9.018H207.5c8.836,0,16,7.164,16,16
	v124C223.5,188.336,216.336,195.5,207.5,195.5z M215.5,55.5c0-4.418-3.582-8-8-8h-192c-4.418,0-8,3.582-8,8v124c0,4.418,3.582,8,8,8
	h192c4.418,0,8-3.582,8-8V55.5z"/>
<path id="white_x5F_bg" fill-rule="evenodd" clip-rule="evenodd" fill="#FFFFFF" d="M15.5,47.253h192c4.418,0,8,3.582,8,8v124
	c0,4.418-3.582,8-8,8h-192c-4.418,0-8-3.582-8-8v-124C7.5,50.835,11.082,47.253,15.5,47.253z"/>
<path id="gray_x5F_quad" fill-rule="evenodd" clip-rule="evenodd" fill="#DAD9D9" d="M15.5,179.254v-124h192v124H15.5z
	 M203.5,59.254h-184v116h184V59.254z"/>
<path id="red" fill-rule="evenodd" clip-rule="evenodd" fill="#ED6A56" d="M29.292,68.424h36v100h-36V68.424z"/>
<path id="blue" fill-rule="evenodd" clip-rule="evenodd" fill="#86AEDC" d="M72.235,68.424h36v100h-36V68.424z"/>
<path id="yellow" fill-rule="evenodd" clip-rule="evenodd" fill="#F7D549" d="M115.234,68.424h36v100h-36V68.424z"/>
<path id="green" fill-rule="evenodd" clip-rule="evenodd" fill="#85AB70" d="M158.177,68.424h36v100h-36V68.424z"/>
<path id="red_x5F_dark" fill-rule="evenodd" clip-rule="evenodd" fill="#D65F4D" d="M37.292,136.424v-4h4v4H37.292z M41.292,144.424
	h-4v-4h4V144.424z M41.292,152.424h-4v-4h4V152.424z M41.292,160.424h-4v-4h4V160.424z M41.292,168.424h-4v-4h4V168.424z
	 M33.292,164.424v-4h4v4H33.292z M33.292,156.424v-4h4v4H33.292z M33.292,148.424v-4h4v4H33.292z M33.292,140.424v-4h4v4H33.292z
	 M33.292,128.424h4v4h-4V128.424z M33.292,76.424v-4h4v4H33.292z M37.292,84.424h-4v-4h4V84.424z M37.292,92.424h-4v-4h4V92.424z
	 M37.292,100.424h-4v-4h4V100.424z M37.292,108.424h-4v-4h4V108.424z M37.292,116.424h-4v-4h4V116.424z M37.292,124.424h-4v-4h4
	V124.424z M37.292,80.424v-4h4v4H37.292z M41.292,88.424h-4v-4h4V88.424z M41.292,96.424h-4v-4h4V96.424z M41.292,104.424h-4v-4h4
	V104.424z M41.292,112.424h-4v-4h4V112.424z M41.292,120.424h-4v-4h4V120.424z M41.292,128.424h-4v-4h4V128.424z M29.292,128.424v-4
	h4v4H29.292z M29.292,120.424v-4h4v4H29.292z M29.292,112.424v-4h4v4H29.292z M29.292,104.424v-4h4v4H29.292z M29.292,96.424v-4h4v4
	H29.292z M29.292,88.424v-4h4v4H29.292z M29.292,80.424v-4h4v4H29.292z M29.292,68.424h4v4h-4V68.424z M37.292,68.424h4v4h-4V68.424
	z M33.292,136.424h-4v-4h4V136.424z M33.292,144.424h-4v-4h4V144.424z M33.292,152.424h-4v-4h4V152.424z M33.292,160.424h-4v-4h4
	V160.424z M33.292,168.424h-4v-4h4V168.424z"/>
<path id="yellow_x5F_dark" fill-rule="evenodd" clip-rule="evenodd" fill="#DEBF41" d="M123.234,136.424v-4h4v4H123.234z
	 M127.234,144.424h-4v-4h4V144.424z M127.234,152.424h-4v-4h4V152.424z M127.234,160.424h-4v-4h4V160.424z M127.234,168.424h-4v-4h4
	V168.424z M119.234,164.424v-4h4v4H119.234z M119.234,156.424v-4h4v4H119.234z M119.234,148.424v-4h4v4H119.234z M119.234,140.424
	v-4h4v4H119.234z M119.234,128.424h4v4h-4V128.424z M119.234,76.424v-4h4v4H119.234z M123.234,84.424h-4v-4h4V84.424z
	 M123.234,92.424h-4v-4h4V92.424z M123.234,100.424h-4v-4h4V100.424z M123.234,108.424h-4v-4h4V108.424z M123.234,116.424h-4v-4h4
	V116.424z M123.234,124.424h-4v-4h4V124.424z M123.234,80.424v-4h4v4H123.234z M127.234,88.424h-4v-4h4V88.424z M127.234,96.424h-4
	v-4h4V96.424z M127.234,104.424h-4v-4h4V104.424z M127.234,112.424h-4v-4h4V112.424z M127.234,120.424h-4v-4h4V120.424z
	 M127.234,128.424h-4v-4h4V128.424z M115.234,128.424v-4h4v4H115.234z M115.234,120.424v-4h4v4H115.234z M115.234,112.424v-4h4v4
	H115.234z M115.234,104.424v-4h4v4H115.234z M115.234,96.424v-4h4v4H115.234z M115.234,88.424v-4h4v4H115.234z M115.234,80.424v-4h4
	v4H115.234z M115.234,68.424h4v4h-4V68.424z M123.234,68.424h4v4h-4V68.424z M119.234,136.424h-4v-4h4V136.424z M119.234,144.424h-4
	v-4h4V144.424z M119.234,152.424h-4v-4h4V152.424z M119.234,160.424h-4v-4h4V160.424z M119.234,168.424h-4v-4h4V168.424z"/>
</svg>
